<svg xmlns="http://www.w3.org/2000/svg" fill="none" viewBox="0 0 568 479"><g clip-path="url(#a)"><rect rx="8.031" fill="#191919" y="66" x="63.656" height="75.288" width="75.288"></rect><path clip-rule="evenodd" d="M107.135 111.035v7.391l11.669-7.391v-7.39l-11.669 7.39ZM95.465 111.035v7.391l11.669-7.391v-7.39l-11.67 7.39Z" fill-rule="evenodd" fill="#fff"></path><path clip-rule="evenodd" d="M83.796 111.035v7.391l11.67-7.391v-7.39l-11.67 7.39ZM118.804 88.862l-11.669 7.391v7.391l11.669-7.39v-7.392ZM107.134 88.862l-11.67 7.391v7.391l11.67-7.39v-7.392Z" fill-rule="evenodd" fill="#fff"></path><path clip-rule="evenodd" d="m95.465 88.862-11.67 7.391v7.391l11.67-7.39v-7.392Z" fill-rule="evenodd" fill="#fff"></path><rect rx="8.031" fill="#191919" y="66" x="155.006" height="75.288" width="75.288"></rect><path d="m190.555 88.796-13.874 5.58a.894.894 0 0 0 .013 1.674l13.932 5.369a5.305 5.305 0 0 0 3.811 0l13.932-5.37a.894.894 0 0 0 .013-1.674l-13.874-5.579a5.308 5.308 0 0 0-3.953 0Z" fill="#FCB400"></path><path d="M193.767 104.352v13.413c0 .638.662 1.075 1.272.84l15.524-5.856a.928.928 0 0 0 .426-.332.885.885 0 0 0 .161-.508V98.496c0-.638-.662-1.075-1.272-.84l-15.524 5.856a.924.924 0 0 0-.426.333.88.88 0 0 0-.161.507Z" fill="#18BFFF"></path><path d="m190.144 105.043-4.607 2.162-.468.219-9.726 4.529c-.616.289-1.403-.147-1.403-.813V98.55c0-.24.127-.448.297-.604.07-.068.15-.126.236-.172.232-.135.564-.172.846-.063l14.747 5.679c.75.289.809 1.31.078 1.653Z" fill="#F82B60"></path><path d="m190.143 105.043-4.608 2.162-11.299-9.26c.07-.067.149-.125.236-.17.232-.136.564-.173.845-.064l14.748 5.679c.75.289.809 1.31.078 1.653Z" fill-opacity=".25" fill="#000"></path><rect rx="8.031" fill="#191919" y="66" x="246.356" height="75.288" width="75.288"></rect><g clip-path="url(#b)"><path d="M302.573 103.642c0-10.256-8.315-18.57-18.571-18.57-10.257 0-18.572 8.314-18.572 18.57 0 8.71 5.997 16.018 14.086 18.025v-12.349h-3.83v-5.676h3.83v-2.445c0-6.32 2.86-9.25 9.066-9.25 1.177 0 3.207.23 4.037.46v5.145c-.438-.046-1.199-.07-2.145-.07-3.045 0-4.222 1.154-4.222 4.153v2.007h6.067l-1.043 5.676h-5.024v12.76c9.196-1.111 16.322-8.941 16.322-18.436h-.001Z" fill="#0866FF"></path><path d="m291.277 109.317 1.042-5.675h-6.066v-2.007c0-2.999 1.176-4.153 4.221-4.153.946 0 1.707.023 2.146.07v-5.145c-.831-.23-2.861-.461-4.038-.461-6.205 0-9.066 2.93-9.066 9.251v2.445h-3.829v5.675h3.829v12.35a18.631 18.631 0 0 0 6.736.41v-12.76h5.025Z" fill="#fff"></path></g><rect rx="8.031" fill="#191919" y="66" x="337.706" height="75.288" width="75.288"></rect><path d="M383.636 104.45a6.29 6.29 0 0 0-4.487 1.891 6.514 6.514 0 0 0-1.858 4.565c0 1.712.668 3.354 1.858 4.565a6.29 6.29 0 0 0 4.487 1.891 6.29 6.29 0 0 0 4.487-1.891 6.515 6.515 0 0 0 1.859-4.565 6.515 6.515 0 0 0-1.859-4.565 6.29 6.29 0 0 0-4.487-1.891Zm-16.485.001a6.269 6.269 0 0 0-2.455.466 6.32 6.32 0 0 0-2.088 1.393 6.46 6.46 0 0 0-1.399 2.105 6.56 6.56 0 0 0 0 4.982 6.46 6.46 0 0 0 1.399 2.105 6.32 6.32 0 0 0 2.088 1.393 6.25 6.25 0 0 0 2.455.465 6.293 6.293 0 0 0 4.43-1.921 6.514 6.514 0 0 0 1.827-4.533 6.514 6.514 0 0 0-1.827-4.533 6.294 6.294 0 0 0-4.43-1.922Zm14.587-8.07a6.51 6.51 0 0 1-1.858 4.565 6.29 6.29 0 0 1-4.487 1.891 6.288 6.288 0 0 1-4.486-1.891 6.511 6.511 0 0 1-1.859-4.564c0-1.712.669-3.354 1.859-4.565a6.29 6.29 0 0 1 4.486-1.89c1.683 0 3.297.68 4.487 1.89a6.512 6.512 0 0 1 1.858 4.565Z" fill="#F06A6A"></path><rect rx="8.031" fill="#191919" y="66" x="429.056" height="75.288" width="75.288"></rect><path d="M473.518 109.208c-1.19 1.056-2.676 2.37-5.371 2.37h-1.611c-1.95 0-3.723-.708-4.993-1.993-1.24-1.255-1.922-2.973-1.922-4.838v-2.205c0-1.865.682-3.583 1.922-4.838 1.27-1.285 3.043-1.992 4.993-1.992h1.611c2.698 0 4.181 1.313 5.371 2.368 1.236 1.09 2.301 2.041 5.144 2.041.434 0 .866-.035 1.294-.104l-.009-.025a9.812 9.812 0 0 0-.598-1.228l-1.9-3.29a9.766 9.766 0 0 0-8.453-4.88h-3.8a9.758 9.758 0 0 0-8.453 4.88l-1.9 3.29a9.766 9.766 0 0 0 0 9.76l1.9 3.292a9.77 9.77 0 0 0 8.453 4.879h3.8a9.768 9.768 0 0 0 4.881-1.307 9.774 9.774 0 0 0 3.572-3.572l1.9-3.286c.228-.395.427-.805.598-1.228l.009-.024a8.004 8.004 0 0 0-1.294-.109c-2.843 0-3.908.946-5.144 2.04" fill="#006BFF"></path><path d="M468.147 97.71h-1.611c-2.968 0-4.918 2.119-4.918 4.832v2.205c0 2.713 1.95 4.832 4.918 4.832h1.611c4.325 0 3.985-4.409 10.515-4.409a9.916 9.916 0 0 1 1.844.17 9.753 9.753 0 0 0 0-3.391c-.608.113-1.225.17-1.844.169-6.532 0-6.19-4.409-10.515-4.409Z" fill="#006BFF"></path><path d="M484.258 106.951a9.104 9.104 0 0 0-3.751-1.612v.032a9.727 9.727 0 0 1-.544 1.9 7.149 7.149 0 0 1 3.101 1.277c0 .009-.006.02-.009.03a16.72 16.72 0 1 1 .009-9.838 7.13 7.13 0 0 1-3.101 1.276c.245.614.427 1.251.544 1.902v.031a9.117 9.117 0 0 0 3.751-1.612c1.069-.791.862-1.685.7-2.214a18.742 18.742 0 0 0-20.7-13.01 18.741 18.741 0 0 0 0 37.062 18.742 18.742 0 0 0 20.7-13.009c.162-.53.369-1.423-.7-2.215Z" fill="#006BFF"></path><path d="M479.956 100.016c-.427.071-.86.108-1.294.109-2.843 0-3.908-.946-5.143-2.04-1.191-1.056-2.674-2.37-5.372-2.37h-1.611c-1.951 0-3.723.709-4.993 1.993-1.24 1.255-1.922 2.974-1.922 4.838v2.205c0 1.865.682 3.583 1.922 4.838 1.27 1.285 3.042 1.993 4.993 1.993h1.611c2.698 0 4.181-1.313 5.372-2.369 1.235-1.089 2.3-2.041 5.143-2.041.434 0 .866.035 1.294.104a9.66 9.66 0 0 0 .545-1.9v-.033a10.096 10.096 0 0 0-1.844-.168c-6.533 0-6.191 4.41-10.515 4.41h-1.611c-2.968 0-4.918-2.121-4.918-4.834v-2.209c0-2.713 1.95-4.833 4.918-4.833h1.611c4.324 0 3.984 4.409 10.515 4.409a10.01 10.01 0 0 0 1.844-.169v-.031a9.839 9.839 0 0 0-.545-1.902Z" fill="#0AE8F0"></path><path d="M479.956 100.016c-.427.071-.86.108-1.294.109-2.843 0-3.908-.946-5.143-2.04-1.191-1.056-2.674-2.37-5.372-2.37h-1.611c-1.951 0-3.723.709-4.993 1.993-1.24 1.255-1.922 2.974-1.922 4.838v2.205c0 1.865.682 3.583 1.922 4.838 1.27 1.285 3.042 1.993 4.993 1.993h1.611c2.698 0 4.181-1.313 5.372-2.369 1.235-1.089 2.3-2.041 5.143-2.041.434 0 .866.035 1.294.104a9.66 9.66 0 0 0 .545-1.9v-.033a10.096 10.096 0 0 0-1.844-.168c-6.533 0-6.191 4.41-10.515 4.41h-1.611c-2.968 0-4.918-2.121-4.918-4.834v-2.209c0-2.713 1.95-4.833 4.918-4.833h1.611c4.324 0 3.984 4.409 10.515 4.409a10.01 10.01 0 0 0 1.844-.169v-.031a9.839 9.839 0 0 0-.545-1.902Z" fill="#0AE8F0"></path><rect rx="8.031" fill="#191919" y="160.498" x="63.656" height="75.288" width="75.288"></rect><g clip-path="url(#c)"><path clip-rule="evenodd" d="M100.531 190.667a6.06 6.06 0 0 0 0-8.586l-11 10.971a6.06 6.06 0 0 0 0 8.586l11-10.971Zm-10.976 23.451a6.06 6.06 0 0 1 0-8.586l23.514-23.451a6.06 6.06 0 0 1 0 8.586l-23.514 23.451Zm12.513.086a6.06 6.06 0 0 1 0-8.586l11-10.97a6.06 6.06 0 0 1 0 8.585l-11 10.971Z" fill-rule="evenodd" fill="#4176FA"></path></g><rect rx="8.031" fill="#191919" y="160.498" x="155.006" height="75.288" width="75.288"></rect><g clip-path="url(#d)"><path clip-rule="evenodd" d="M205.454 185.321c-3.397-3.382-7.915-5.246-12.728-5.248-9.919 0-17.991 8.027-17.994 17.894a17.77 17.77 0 0 0 2.402 8.945l-2.553 9.274 9.539-2.489a18.05 18.05 0 0 0 8.598 2.178h.008c9.917 0 17.99-8.028 17.993-17.894.002-4.782-1.868-9.277-5.265-12.659v-.001Zm-12.728 27.532h-.006a14.998 14.998 0 0 1-7.612-2.073l-.547-.322-5.66 1.476 1.51-5.489-.355-.562a14.776 14.776 0 0 1-2.286-7.916c.003-8.2 6.712-14.872 14.962-14.872a14.894 14.894 0 0 1 10.573 4.363 14.736 14.736 0 0 1 4.376 10.521c-.003 8.201-6.712 14.873-14.955 14.873v.001Zm8.203-11.139c-.449-.224-2.66-1.305-3.072-1.454-.412-.149-.712-.224-1.011.224-.3.448-1.162 1.455-1.424 1.753-.262.298-.524.335-.974.111-.449-.224-1.898-.695-3.616-2.218-1.336-1.186-2.239-2.65-2.501-3.098-.262-.448-.028-.69.197-.912.202-.201.449-.522.674-.783.226-.261.3-.448.45-.746.15-.299.075-.559-.037-.783-.112-.224-1.011-2.425-1.387-3.32-.365-.872-.736-.753-1.011-.768a18.121 18.121 0 0 0-.862-.015c-.3 0-.787.111-1.199.559-.412.448-1.574 1.53-1.574 3.73s1.611 4.327 1.836 4.626c.225.298 3.171 4.814 7.681 6.751 1.072.461 1.91.736 2.563.942 1.077.341 2.057.293 2.832.178.863-.129 2.66-1.082 3.034-2.126.374-1.045.374-1.94.262-2.126-.112-.187-.412-.299-.862-.523l.001-.002Z" fill-rule="evenodd" fill="#25D366"></path></g><rect rx="8.031" fill="#191919" y="160.498" x="246.356" height="75.288" width="75.288"></rect><g clip-path="url(#e)"><path d="M282.869 189.482c.612 1.856 1.274 4.143 1.976 6.812-2.658-.04-5.357-.07-7.965-.101l-1.324-.009c1.495-5.839 3.31-10.263 4.645-11.306.11-.07.231-.11.361-.121.18 0 .331.101.472.281.34.531.942 1.745 1.835 4.444Zm18.529 7.434h-.01l-.02-.01h-.02c-.07-.01-.13-.02-.2-.02l-.181-.02c-4.183-.301-8.497-.422-12.53-.502l-.01-.03c-1.966-7.373-4.424-14.907-7.734-14.907-3.09.01-5.869 4.966-8.267 14.717-1.705-.02-3.25-.05-4.705-.07h-.221c-.18-.01-.361 0-.541.02a1.729 1.729 0 0 0 .06 3.411l.02.02h4.614a125.34 125.34 0 0 0-1.113 5.738l-.141.822v.04a1.15 1.15 0 0 0 2.117.612l.03.03 2.257-7.233h10.875c.832 3.15 1.695 6.39 2.839 9.44.612 1.636 2.036 5.448 4.423 5.468h.031c3.692 0 5.136-5.969 6.089-9.922.211-.853.381-1.585.552-2.127l.07-.22c.01-.05.02-.1.02-.161a.572.572 0 0 0-1.103-.2l-.08.22c-.312.873-.602 1.696-.863 2.418l-.02.05c-1.605 4.525-2.338 6.591-3.762 6.591h-.1c-1.836 0-3.552-7.444-4.203-10.243-.111-.481-.221-.933-.312-1.324h11.838c.221 0 .432-.05.622-.151l.05-.029.06-.041.031-.02.09-.06c.24-.2.411-.472.481-.752a1.315 1.315 0 0 0-1.033-1.555Z" fill="#1E61F0"></path></g><rect rx="8.031" fill="#191919" y="160.498" x="337.706" height="75.288" width="75.288"></rect><g clip-path="url(#f)"><path d="m358.963 202.272-.733 3.255c0 .097-.098.146-.196.146h-3.522c-.049 0-.147-.049-.147-.097-.048-.049-.048-.097-.048-.146l4.646-13.992s.098-.243.392-.34c1.027-.194 2.641-.437 3.766-.631.245-.049.343.194.343.194l4.549 14.866c0 .049 0 .097-.049.146-.049.049-.098.049-.147.049h-2.054c-.538 0-1.615.048-2.006.048-.098 0-.196-.048-.196-.146l-.733-3.303-3.865-.049Zm3.278-2.866c-.294-1.166-.734-3.255-1.174-5.053-.294 1.263-.978 3.838-1.321 5.053h2.495Zm10.419-3.45c2.494-1.7 4.598-1.311 5.625-.291 1.223 1.263.538 2.915.929 9.862 0 .049 0 .097-.049.146-.049.049-.097.049-.146.049-.392 0-1.125-.049-1.468-.049-.587 0-1.81.049-2.299.049-.049 0-.098 0-.147-.049-.048-.049-.048-.097-.048-.146.048-6.801.097-7.724-1.126-7.724-.44 0-.782.194-1.174.34 0 3.498.049 4.518.196 7.336 0 .048 0 .097-.049.097-.049.048-.098.048-.098.048l-3.913.049c-.049 0-.098 0-.098-.049-.049-.048-.049-.097-.049-.097.098-10.154 0-12.243-.293-14.38-.147-.097.049-.097.049-.097 1.761-.243 1.908-.292 3.913-.681 0 0 .196 0 .196.243.049 1.506.049 5.344.049 5.344Zm13.402 8.697c-.733.534-2.152 1.263-3.326 1.263-1.81 0-2.935-1.312-2.935-3.255 0-3.012 3.571-3.887 6.115-4.227.049-.486.049-1.02-1.223-1.02s-2.348.389-3.473.826c-.049.048-.147 0-.196 0-.049-.049-.098-.097-.098-.195l.098-2.332c0-.097.049-.145.147-.194 2.299-.68 6.212-1.214 7.826.292 1.028.923.979 2.089.93 4.032-.049 2.818 0 3.595.146 5.684 0 .049 0 .097-.048.146-.049.049-.098.049-.147.049l-3.62.048c-.049 0-.098 0-.147-.048-.049-.049-.049-.098-.049-.146v-.923Zm-.097-4.033c-.93.098-2.348.195-2.348 1.409 0 1.069 1.174 1.409 2.348.68v-2.089Zm6.554.049c-.098 0-.195-.097-.195-.194-.245-5.296-.294-5.879-.587-9.183 0-.097.048-.194.195-.242l3.913-.632c.049 0 .147 0 .196.049.049.048.049.097.049.194-.245 2.38-.489 6.899-.538 9.765 0 .097-.098.194-.196.194l-2.837.049Zm-.683 4.51c-.002-.016-.002-.032-.002-.048 0-.66.017-1.335.021-1.921 0-.215-.007-.431-.021-.646 0-.034 0-.067.016-.1a7.508 7.508 0 0 0-.016-.335c0-.048 0-.098.05-.147.05-.049.099-.049.148-.049.991.098 2.725.049 3.517-.05.05 0 .099 0 .149.05.05.049.05.098.05.147a49.161 49.161 0 0 1 0 .435v3.012c0 .049 0 .097-.049.146-.049.049-.098.049-.147.049-1.419-.049-2.299-.049-3.522.048-.049 0-.098 0-.147-.048-.049-.049-.049-.098-.049-.146l.002-.397Z" fill="#fff"></path></g><rect rx="8.031" fill="#191919" y="160.498" x="429.056" height="75.288" width="75.288"></rect><path d="M451.642 184.519c0-.792.642-1.434 1.434-1.434h27.821a.86.86 0 0 1 .861.86v27.821c0 .792-.643 1.434-1.435 1.434-15.84 0-28.681-12.841-28.681-28.681Z" fill="#105ED5"></path><rect rx="8.031" fill="#191919" y="254.996" x="63.656" height="75.288" width="75.288"></rect><path d="m118.891 292.665-7.847-13.875a3.293 3.293 0 0 0-2.851-1.684H94.408a3.293 3.293 0 0 0-2.852 1.684l-.99 1.755h17.603l-1.956 3.439H88.611l-1.956 3.462h17.602l-1.955 3.439H84.699l-.99 1.78.966 1.683h17.603l1.932 3.439H86.608l1.956 3.438h17.602l1.956 3.439H90.519l1.037 1.828a3.294 3.294 0 0 0 2.852 1.683h13.785a3.294 3.294 0 0 0 2.851-1.683l7.847-13.827Z" fill="#EF54AC"></path><rect rx="8.031" fill="#191919" y="254.996" x="155.006" height="75.288" width="75.288"></rect><g clip-path="url(#g)"><path d="M210.676 274.572h-36.049v36.138h36.049v-36.138Z" fill="#FF4F00"></path><path d="M210.676 292.641c0-9.98-8.07-18.069-18.025-18.069-9.954 0-18.024 8.089-18.024 18.069 0 9.979 8.07 18.069 18.024 18.069 9.955 0 18.025-8.09 18.025-18.069Z" fill="#FF4F00"></path><path d="m179.699 294.481-.005-.016 3.25-2.983v-1.437h-5.214v1.437h3.115l.005.014-3.218 2.985v1.437h5.365v-1.437h-3.298ZM186.196 289.909c-.602 0-1.092.091-1.471.273a1.93 1.93 0 0 0-.853.749 2.744 2.744 0 0 0-.358 1.085l1.582.223c.058-.338.172-.578.344-.719.195-.148.435-.222.68-.211.321 0 .553.086.698.258.144.172.217.411.217.725v.156h-1.522c-.774 0-1.33.173-1.668.517-.339.344-.507.798-.507 1.363 0 .578.169 1.009.507 1.291.337.282.762.422 1.274.421.634 0 1.122-.219 1.464-.657.202-.269.346-.577.423-.904h.058l.218 1.437h1.433v-3.64c0-.752-.197-1.334-.593-1.747-.395-.414-1.037-.62-1.926-.62Zm.501 4.486c-.227.19-.525.285-.896.285-.306 0-.518-.054-.637-.161a.532.532 0 0 1-.179-.409.532.532 0 0 1 .148-.396.555.555 0 0 1 .408-.149h1.496v.099a.913.913 0 0 1-.34.731ZM197.383 290.045h-1.694v5.874h1.694v-5.874ZM207.389 290.045c-.479 0-.856.169-1.132.507-.198.244-.348.603-.451 1.079h-.05l-.222-1.586h-1.446v5.873h1.694v-3.012c0-.38.088-.671.266-.873.177-.203.504-.304.982-.304h.643v-1.684h-.284ZM202.401 290.237c-.395-.236-.894-.354-1.496-.353-.948 0-1.689.271-2.225.812s-.803 1.286-.803 2.237a3.572 3.572 0 0 0 .364 1.66c.232.46.593.841 1.039 1.097.449.26.982.391 1.601.391.535 0 .982-.083 1.341-.248.337-.148.631-.381.853-.675.212-.289.369-.615.464-.961l-1.46-.409c-.061.224-.179.43-.343.595-.165.165-.441.248-.828.248-.461 0-.804-.132-1.03-.397-.164-.191-.267-.464-.313-.817h3.996c.016-.165.025-.304.025-.416v-.366a3.273 3.273 0 0 0-.296-1.425 2.226 2.226 0 0 0-.889-.973Zm-1.545 1.047c.687 0 1.076.339 1.169 1.017h-2.43c.039-.227.132-.44.272-.621.223-.264.553-.396.989-.396ZM196.555 287.677a.953.953 0 0 0-.693.267.93.93 0 0 0-.272.689.924.924 0 0 0 .272.693.935.935 0 0 0 .693.273.91.91 0 0 0 .89-.592.94.94 0 0 0 .062-.374.924.924 0 0 0-.266-.688.902.902 0 0 0-.686-.268ZM193.055 289.884c-.577 0-1.04.182-1.39.545-.26.269-.45.67-.571 1.205h-.054l-.222-1.586h-1.446v7.559h1.693v-3.114h.062c.052.208.124.41.217.603.143.314.378.578.673.755.307.168.652.251 1.001.242.709 0 1.249-.277 1.62-.83.371-.554.557-1.326.557-2.318 0-.957-.18-1.707-.539-2.249-.359-.541-.892-.812-1.601-.812Zm.172 4.256c-.197.287-.506.431-.927.431a1.092 1.092 0 0 1-.908-.416c-.22-.276-.329-.654-.328-1.133v-.112c0-.487.109-.86.328-1.119.218-.259.521-.387.908-.384.428 0 .739.137.933.409.194.273.291.653.291 1.14.001.505-.097.899-.295 1.184h-.002Z" fill="#FFFDF9"></path></g><rect rx="8.031" fill="#191919" y="254.996" x="246.356" height="75.288" width="75.288"></rect><g clip-path="url(#h)"><path clip-rule="evenodd" d="M305.324 293.927h-5.799c.137 1.395 1.151 1.843 2.302 1.843 1.18 0 2.13-.267 2.914-.686v2.399a5.975 5.975 0 0 1-3.281.795c-2.885 0-4.913-1.807-4.913-5.406 0-3.029 1.719-5.435 4.532-5.435 2.82 0 4.288 2.37 4.288 5.42 0 .29-.029.911-.043 1.07Zm-4.259-4.062c-.741 0-1.561.528-1.561 1.865h3.057c0-1.337-.77-1.865-1.496-1.865Zm-9.187 8.413c-1.036 0-1.669-.433-2.087-.752l-.014 3.347-2.964.629v-13.87h2.705l.058.737a3.365 3.365 0 0 1 2.323-.932c2.087 0 4.043 1.879 4.043 5.348 0 3.78-1.942 5.493-4.064 5.493Zm-.684-8.203c-.683 0-1.108.245-1.417.585l.014 4.424c.288.318.705.563 1.403.563 1.094 0 1.828-1.192 1.828-2.797 0-1.554-.749-2.775-1.828-2.775Zm-8.46-2.443h2.971v10.437h-2.971v-10.437Zm0-3.397 2.971-.629v2.428l-2.971.636v-2.435Zm-3.108 6.758v7.076h-2.964v-10.437h2.662l.086.882c.719-1.28 2.209-1.02 2.604-.882v2.739c-.374-.123-1.647-.311-2.388.622Zm-6.151 3.411c0 1.756 1.87 1.214 2.244 1.055v2.429c-.395.217-1.107.39-2.079.39a2.981 2.981 0 0 1-2.856-1.876 3.02 3.02 0 0 1-.216-1.188l.008-9.519 2.892-.622v2.559h2.259v2.551h-2.252v4.228-.007Zm-3.533.506c0 2.147-1.661 3.368-4.122 3.368a8.016 8.016 0 0 1-3.208-.672v-2.84c.992.542 2.23.946 3.208.946.662 0 1.101-.173 1.101-.722 0-1.432-4.504-.897-4.504-4.192 0-2.104 1.641-3.361 4.043-3.361.979 0 1.957.144 2.943.542v2.804a6.61 6.61 0 0 0-2.95-.766c-.618 0-1.036.181-1.036.65 0 1.338 4.525.701 4.525 4.25v-.007Z" fill-rule="evenodd" fill="#fff"></path></g><rect rx="8.031" fill="#191919" y="254.996" x="337.706" height="75.288" width="75.288"></rect><path d="M378.884 295.936c12.472-5.917 6.656-20.863 6.656-20.863-25.212 0-21.548 21.892-21.548 21.892l13.711.003c2.285 1.194 4.842 5.26 2.047 8.882-1.464 1.897-4.278 2.024-6.072.446-.729-.639-2.214-2.876-.527-5.188 1.306-1.787 3.705-1.044 4.445-.285.306.313.366.793.08 1.123a.787.787 0 0 1-.537.275.777.777 0 0 1-.572-.191c-.295-.261-1.291-.69-2.066.151-.371.403-.948 1.733.205 2.908 1.063 1.085 2.896.898 3.856-.282 1.799-2.213.362-4.535-.367-5.178-1.966-1.726-4.843-1.41-6.648.487-1.592 1.67-1.334 4.097-1.165 4.816.901 3.81 4.782 6.182 8.442 4.947 6.496-2.192 8.93-10.915 6.514-17.322a8.743 8.743 0 0 1-6.454 3.379Zm-8.262-4.618c-1.996-2.83-1.382-6.787 1.371-8.839 2.752-2.051 6.601-1.421 8.598 1.409 1.996 2.831 1.382 6.787-1.371 8.839-2.753 2.052-6.603 1.421-8.598-1.409Zm2.713-1.126a1.533 1.533 0 0 0 2.148.346 1.557 1.557 0 0 0-.097-2.577 1.54 1.54 0 0 0-1.71.066 1.557 1.557 0 0 0-.341 2.165Z" fill="#23C55E"></path><rect rx="8.031" fill="#191919" y="254.996" x="429.056" height="75.288" width="75.288"></rect><path d="m466.689 275.953 14.771 8.343v16.686l-14.771 8.343-14.771-8.343v-16.686l14.771-8.343Z" fill="#38393A"></path><path d="m466.701 275.953 9.601 16.686H457.1l9.601-16.686Z" fill="#B5B5B5"></path><path d="m466.7 275.953 14.782 8.343-5.18 8.343-9.602-16.686Z" fill="#8F8F8F"></path><path d="m466.696 275.953-9.597 16.686-5.18-8.343 14.777-8.343Z" fill="#CDCDCD"></path><path d="m476.278 292.642 5.179 8.343-14.757 8.343 9.578-16.686Z" fill="#5C5C5C"></path><path d="m451.919 300.984 5.179-8.342 9.603 16.685-14.782-8.343Z" fill="#B0B0B0"></path><path d="m466.7 309.327-9.601-16.686h19.202l-9.601 16.686Z" fill="#9B9B9B"></path><path d="m457.1 292.643-5.18 8.343v-16.685l5.18 8.342Z" fill="#E0E0E0"></path><rect rx="8.031" fill="#191919" y="349.495" x="63.656" height="75.288" width="75.288"></rect><path d="M90.013 390.349v-6.486c0-.33.268-.594.596-.594h7.322c.33 0 .595.268.595.594v6.486a.594.594 0 0 1-.595.593h-7.322a.594.594 0 0 1-.596-.593Z" fill="#EE5757"></path><path d="M98.53 395.079v6.647a.594.594 0 0 1-.592.594l-7.322.066a.597.597 0 0 1-.603-.594v-6.716c0-.33.268-.594.596-.594h7.322c.33.004.599.271.599.597Z" fill="#61DABF"></path><path d="M112.587 372.485a.593.593 0 0 0-.595-.593H90.609a.594.594 0 0 0-.596.593v6.644c0 .329.268.593.596.593h21.379a.593.593 0 0 0 .595-.593v-6.644h.004Z" fill="#EE5757"></path><path d="M112.587 383.863a.594.594 0 0 0-.595-.594h-9.094a.595.595 0 0 0-.595.594v6.486c0 .329.268.593.595.593h9.09a.593.593 0 0 0 .595-.593v-6.486h.004Z" fill="#61DABF"></path><rect rx="8.031" fill="#191919" y="349.495" x="155.006" height="75.288" width="75.288"></rect><path d="M187.813 387.125 207 382.559v-9.939h-9.943l-9.244 14.505Z" fill="#F30"></path><path d="M178.3 386.964c0 1.182.134 2.337.43 3.438l9.083-3.277-9.164-3.304a13.624 13.624 0 0 0-.349 3.143ZM181.686 377.697l6.127 9.428 2.821-14.371a14.361 14.361 0 0 0-8.948 4.943Z" fill="#F30"></path><path d="M187.813 387.125 207 391.692v9.965h-9.943l-9.244-14.532Z" fill="#F30"></path><path d="m181.686 396.554 6.127-9.429 2.821 14.371c-3.574-.483-6.718-2.31-8.948-4.942Z" fill="#F30"></path><rect rx="8.031" fill="#191919" y="349.495" x="246.356" height="75.288" width="75.288"></rect><g clip-rule="evenodd" clip-path="url(#i)" fill-rule="evenodd"><path d="M266.781 387.139c0 9.509 7.709 17.219 17.219 17.219 9.51 0 17.219-7.71 17.219-17.219 0-9.51-7.709-17.219-17.219-17.219-9.51 0-17.219 7.709-17.219 17.219Z" fill="#fff"></path><path d="M282.544 398.663H281.1l1.428-8.643-4.421.006-.062.001a.721.721 0 0 1-.721-.721c0-.171.16-.46.16-.46l7.944-13.249 1.468.006-1.464 8.657 4.444-.005.071-.001a.72.72 0 0 1 .72.72.697.697 0 0 1-.153.424l-7.97 13.265ZM265 387.139c0 10.493 8.507 19 19 19 10.494 0 19-8.507 19-19s-8.506-19-19-19c-10.493 0-19 8.507-19 19Z" fill="#005AF0"></path></g><rect rx="8.031" fill="#191919" y="349.495" x="337.706" height="75.288" width="75.288"></rect><path d="M383.575 386.02c.988-1.147 1.55-2.511 1.55-3.956 0-5.419-4.025-9.425-12.65-9.425-4.946 0-8.625 1.45-8.625 1.45l1.294 3.48s2.646-1.45 7.331-1.45c4.685 0 9.2 1.359 9.2 5.945 0 .689-.18 1.26-.499 1.74-3.522-2.723-8.036-4.346-11.576-4.346-2.008 0-5.031 1.02-5.031 3.911 0 4.626 7.057 5.945 10.781 5.945 2.093 0 3.971-.458 5.512-1.228 1.433 1.568 2.394 3.48 2.394 5.723 0 3.444-3.594 4.205-5.606 4.205-5.463 0-8.621-3.72-9.631-5.945l-3.307.87v7.83h3.45v-2.9s3.468 3.77 9.488 3.77c5.754 0 9.2-3.417 9.2-7.83 0-2.941-1.298-5.592-3.275-7.789Zm-15.413-2.361c0-1.464 5.36-.739 9.695 1.971-3.998.766-9.695-.684-9.695-1.971Z" fill="#FFF000"></path><rect rx="8.031" fill="#191919" y="349.495" x="429.056" height="75.288" width="75.288"></rect><g clip-path="url(#j)"><path d="M484.2 387.143c0-9.654-7.851-17.504-17.5-17.504-9.648 0-17.5 7.85-17.5 17.504 0 9.12 7.01 16.633 15.924 17.432h.043c.146.013.293.024.439.033l.085.005c.133.008.268.014.405.018h.107c.165 0 .331.008.498.008.168 0 .317 0 .474-.007h.067c.139-.004.277-.01.415-.017h.028c.31-.017.619-.043.925-.077 8.754-.949 15.59-8.388 15.59-17.395Zm-15.65 15.729-.168-4.841 4.226-2.593a3.187 3.187 0 0 0 4.987-2.722 3.225 3.225 0 0 0-3.092-3.092 3.168 3.168 0 0 0-3.237 3.691l-2.983 1.845-.216-6.1 4.159-2.545a3.75 3.75 0 1 0-1.396-2.103l-2.863 1.777-.17-4.868a3.41 3.41 0 0 0-1.37-6.588 3.41 3.41 0 0 0-1.086 6.587l-.309 10.086-3.117-1.986a3.706 3.706 0 0 0-.28-2.529c-.623-1.297-1.88-2.217-3.313-2.307a3.951 3.951 0 1 0 2.276 6.976l4.344 2.749-.261 8.544c-7.779-.992-13.821-7.659-13.821-15.71.006-8.733 7.109-15.839 15.84-15.839 8.732 0 15.834 7.104 15.834 15.838 0 8.108-6.122 14.811-13.984 15.73Z" fill="#fff"></path><path d="M466.571 376.077a2.068 2.068 0 1 0 0 4.136 2.068 2.068 0 0 0 0-4.136ZM474.365 390.979a1.877 1.877 0 1 0 1.88 1.874v-.002a1.878 1.878 0 0 0-1.88-1.872ZM475.521 385.532a2.209 2.209 0 1 0-1.932-3.974 2.209 2.209 0 0 0 1.932 3.974ZM458.076 386.146a2.382 2.382 0 1 0 .003 4.765 2.382 2.382 0 0 0-.003-4.765Z" fill="#009BDE"></path></g><g filter="url(#k)"><path clip-rule="evenodd" d="M568 0H0v479h568V0ZM282.5 421C392.681 421 482 339.964 482 240S392.681 59 282.5 59 83 140.036 83 240s89.319 181 199.5 181Z" fill-rule="evenodd" fill="#242424"></path></g></g><defs><clipPath id="a"><path d="M0 0h568v479H0z" fill="#fff"></path></clipPath><clipPath id="b"><path d="M265.429 85.073h37.142v37.142h-37.142z" fill="#fff"></path></clipPath><clipPath id="c"><path d="M87.748 182.081h27.104v32.123H87.748z" fill="#fff"></path></clipPath><clipPath id="d"><path d="M174.581 180.073h36.139v36.139h-36.139z" fill="#fff"></path></clipPath><clipPath id="e"><path d="M265.429 179.571h37.142v37.142h-37.142z" fill="#fff"></path></clipPath><clipPath id="f"><path d="M354.317 190.369h42.067v15.546h-42.067z" fill="#fff"></path></clipPath><clipPath id="g"><path d="M174.581 274.572h36.139v36.139h-36.139z" fill="#fff"></path></clipPath><clipPath id="h"><path d="M262.417 283.606h43.165v18.069h-43.165z" fill="#fff"></path></clipPath><clipPath id="i"><path d="M265 368.139h38v38h-38z" fill="#fff"></path></clipPath><clipPath id="j"><path d="M449.2 369.639h35v35h-35z" fill="#fff"></path></clipPath><filter filterUnits="userSpaceOnUse" color-interpolation-filters="sRGB" y="-1110" x="-1110" height="699" width="788" id="k"><feFlood result="BackgroundImageFix" flood-opacity="0"></feFlood><feBlend result="shape" in2="BackgroundImageFix" in="SourceGraphic"></feBlend><feGaussianBlur stdDeviation="55" result="effect1_foregroundBlur_3978_9826"></feGaussianBlur></filter></defs></svg>