<svg xmlns="http://www.w3.org/2000/svg" width="135" height="40" viewBox="0 0 135 40" fill="none"><g clip-path="url(#clip0_5879_17868)"><rect width="135" height="40" rx="6" fill="white"></rect><path d="M47.751 10.1274C47.751 10.9333 47.5495 11.6385 47.0458 12.1422C46.4414 12.7467 45.7362 13.0489 44.8295 13.0489C43.9228 13.0489 43.2177 12.7467 42.6132 12.1422C42.0088 11.5378 41.7065 10.8326 41.7065 9.92594C41.7065 9.01927 42.0088 8.31409 42.6132 7.70965C43.2177 7.1052 43.9228 6.80298 44.8295 6.80298C45.2325 6.80298 45.6354 6.90372 46.0384 7.1052C46.4414 7.30668 46.7436 7.50816 46.9451 7.81039L46.4414 8.31409C46.0384 7.81039 45.5347 7.6089 44.8295 7.6089C44.2251 7.6089 43.6206 7.81039 43.2177 8.31409C42.714 8.71705 42.5125 9.3215 42.5125 10.0267C42.5125 10.7319 42.714 11.3363 43.2177 11.7393C43.7214 12.1422 44.2251 12.4445 44.8295 12.4445C45.5347 12.4445 46.0384 12.243 46.5421 11.7393C46.8443 11.4371 47.0458 11.0341 47.0458 10.5304H44.8295V9.72446H47.751V10.1274ZM52.3851 7.6089H49.6651V9.52298H52.1836V10.2282H49.6651V12.1422H52.3851V12.9482H48.8591V6.90372H52.3851V7.6089ZM55.7095 12.9482H54.9036V7.6089H53.191V6.90372H57.4221V7.6089H55.7095V12.9482ZM60.3436 12.9482V6.90372H61.1495V12.9482H60.3436ZM64.5747 12.9482H63.7688V7.6089H62.0562V6.90372H66.1865V7.6089H64.4739V12.9482H64.5747ZM74.1451 12.1422C73.5406 12.7467 72.8354 13.0489 71.9288 13.0489C71.0221 13.0489 70.3169 12.7467 69.7125 12.1422C69.108 11.5378 68.8058 10.8326 68.8058 9.92594C68.8058 9.01927 69.108 8.31409 69.7125 7.70965C70.3169 7.1052 71.0221 6.80298 71.9288 6.80298C72.8354 6.80298 73.5406 7.1052 74.1451 7.70965C74.7495 8.31409 75.0517 9.01927 75.0517 9.92594C75.0517 10.8326 74.7495 11.5378 74.1451 12.1422ZM70.3169 11.6385C70.7199 12.0415 71.3243 12.3437 71.9288 12.3437C72.5332 12.3437 73.1377 12.1422 73.5406 11.6385C73.9436 11.2356 74.2458 10.6311 74.2458 9.92594C74.2458 9.22076 74.0443 8.61631 73.5406 8.21335C73.1377 7.81039 72.5332 7.50816 71.9288 7.50816C71.3243 7.50816 70.7199 7.70965 70.3169 8.21335C69.914 8.61631 69.6117 9.22076 69.6117 9.92594C69.6117 10.6311 69.8132 11.2356 70.3169 11.6385ZM76.1599 12.9482V6.90372H77.0665L79.988 11.6385V6.90372H80.7939V12.9482H79.988L76.8651 8.01187V12.9482H76.1599Z" fill="black" stroke="white" stroke-width="0.201481" stroke-miterlimit="10"></path><path d="M68.6045 21.8133C66.1868 21.8133 64.2727 23.6267 64.2727 26.1452C64.2727 28.563 66.1868 30.477 68.6045 30.477C71.0223 30.477 72.9364 28.6637 72.9364 26.1452C72.9364 23.5259 71.0223 21.8133 68.6045 21.8133ZM68.6045 28.6637C67.2949 28.6637 66.1868 27.5556 66.1868 26.0444C66.1868 24.5333 67.2949 23.4252 68.6045 23.4252C69.9142 23.4252 71.0223 24.4326 71.0223 26.0444C71.0223 27.5556 69.9142 28.6637 68.6045 28.6637ZM59.2357 21.8133C56.8179 21.8133 54.9038 23.6267 54.9038 26.1452C54.9038 28.563 56.8179 30.477 59.2357 30.477C61.6534 30.477 63.5675 28.6637 63.5675 26.1452C63.5675 23.5259 61.6534 21.8133 59.2357 21.8133ZM59.2357 28.6637C57.926 28.6637 56.8179 27.5556 56.8179 26.0444C56.8179 24.5333 57.926 23.4252 59.2357 23.4252C60.5453 23.4252 61.6534 24.4326 61.6534 26.0444C61.6534 27.5556 60.5453 28.6637 59.2357 28.6637ZM48.0534 23.123V24.9363H52.3853C52.2845 25.9437 51.8816 26.7496 51.3779 27.2533C50.7734 27.8578 49.766 28.563 48.0534 28.563C45.3334 28.563 43.3186 26.4474 43.3186 23.7274C43.3186 21.0074 45.4342 18.8919 48.0534 18.8919C49.4638 18.8919 50.5719 19.4963 51.3779 20.2015L52.6875 18.8919C51.5794 17.8844 50.169 17.0785 48.1542 17.0785C44.5275 17.0785 41.4045 20.1007 41.4045 23.7274C41.4045 27.3541 44.5275 30.3763 48.1542 30.3763C50.169 30.3763 51.5794 29.7719 52.7882 28.4622C53.9971 27.2533 54.4001 25.5407 54.4001 24.2311C54.4001 23.8282 54.4001 23.4252 54.2994 23.123H48.0534ZM93.7897 24.5333C93.3868 23.5259 92.3794 21.8133 90.1631 21.8133C87.9468 21.8133 86.1334 23.5259 86.1334 26.1452C86.1334 28.563 87.9468 30.477 90.3645 30.477C92.2786 30.477 93.4875 29.2682 93.8905 28.563L92.4801 27.5556C91.9764 28.2607 91.3719 28.7644 90.3645 28.7644C89.3571 28.7644 88.7527 28.3615 88.249 27.4548L93.9912 25.037L93.7897 24.5333ZM87.9468 25.9437C87.9468 24.3319 89.2564 23.4252 90.1631 23.4252C90.8682 23.4252 91.5734 23.8282 91.7749 24.3319L87.9468 25.9437ZM83.2119 30.0741H85.126V17.4815H83.2119V30.0741ZM80.1897 22.72C79.686 22.2163 78.8801 21.7126 77.8727 21.7126C75.7571 21.7126 73.7423 23.6267 73.7423 26.0444C73.7423 28.4622 75.6564 30.2756 77.8727 30.2756C78.8801 30.2756 79.686 29.7719 80.089 29.2682H80.1897V29.8726C80.1897 31.4844 79.2831 32.3911 77.8727 32.3911C76.7645 32.3911 75.9586 31.5852 75.7571 30.88L74.1453 31.5852C74.649 32.6933 75.8579 34.1037 77.9734 34.1037C80.1897 34.1037 82.0031 32.7941 82.0031 29.6711V22.0148H80.1897V22.72ZM77.9734 28.6637C76.6638 28.6637 75.5556 27.5556 75.5556 26.0444C75.5556 24.5333 76.6638 23.4252 77.9734 23.4252C79.2831 23.4252 80.2905 24.5333 80.2905 26.0444C80.2905 27.5556 79.2831 28.6637 77.9734 28.6637ZM102.554 17.4815H98.0208V30.0741H99.9349V25.3393H102.554C104.67 25.3393 106.685 23.8282 106.685 21.4104C106.685 18.9926 104.67 17.4815 102.554 17.4815ZM102.655 23.5259H99.9349V19.1941H102.655C104.065 19.1941 104.871 20.403 104.871 21.3096C104.77 22.4178 103.965 23.5259 102.655 23.5259ZM114.24 21.7126C112.83 21.7126 111.419 22.317 110.916 23.6267L112.628 24.3319C113.031 23.6267 113.636 23.4252 114.341 23.4252C115.348 23.4252 116.255 24.0296 116.356 25.037V25.1378C116.053 24.9363 115.247 24.6341 114.442 24.6341C112.628 24.6341 110.815 25.6415 110.815 27.4548C110.815 29.1674 112.326 30.2756 113.938 30.2756C115.247 30.2756 115.852 29.6711 116.356 29.0667H116.456V30.0741H118.27V25.2385C118.068 23.0222 116.356 21.7126 114.24 21.7126ZM114.039 28.6637C113.434 28.6637 112.527 28.3615 112.527 27.5556C112.527 26.5482 113.636 26.2459 114.542 26.2459C115.348 26.2459 115.751 26.4474 116.255 26.6489C116.053 27.8578 115.046 28.6637 114.039 28.6637ZM124.616 22.0148L122.501 27.4548H122.4L120.184 22.0148H118.169L121.493 29.6711L119.579 33.9022H121.493L126.631 22.0148H124.616ZM107.692 30.0741H109.606V17.4815H107.692V30.0741Z" fill="black"></path><path d="M10.4769 7.40741C10.1747 7.70963 10.074 8.21334 10.074 8.81778V31.0815C10.074 31.6859 10.2755 32.1896 10.5777 32.4919L10.6784 32.5926L23.1703 20.1007V19.8993L10.4769 7.40741Z" fill="url(#paint0_linear_5879_17868)"></path><path d="M27.2 24.3319L23.0696 20.2015V19.8993L27.2 15.7689L27.3007 15.8696L32.237 18.6904C33.6474 19.4963 33.6474 20.8059 32.237 21.6119L27.2 24.3319Z" fill="url(#paint1_linear_5879_17868)"></path><path d="M27.3008 24.2311L23.0696 20L10.4771 32.5926C10.9808 33.0963 11.6859 33.0963 12.5926 32.6933L27.3008 24.2311Z" fill="url(#paint2_linear_5879_17868)"></path><path d="M27.3008 15.7689L12.5926 7.40742C11.6859 6.90372 10.9808 7.00446 10.4771 7.50816L23.0696 20L27.3008 15.7689Z" fill="url(#paint3_linear_5879_17868)"></path><path opacity="0.2" d="M27.2 24.1304L12.5926 32.3911C11.7867 32.8948 11.0815 32.7941 10.5778 32.3911L10.4771 32.4919L10.5778 32.5926C11.0815 32.9956 11.7867 33.0963 12.5926 32.5926L27.2 24.1304Z" fill="black"></path><path opacity="0.12" d="M10.4769 32.3911C10.1747 32.0889 10.074 31.5852 10.074 30.9807V31.0815C10.074 31.6859 10.2755 32.1896 10.5777 32.4919V32.3911H10.4769ZM32.2369 21.3096L27.1999 24.1304L27.3006 24.2311L32.2369 21.4104C32.9421 21.0074 33.2443 20.5037 33.2443 20C33.2443 20.5037 32.8414 20.9067 32.2369 21.3096Z" fill="black"></path><path opacity="0.25" d="M12.5925 7.50817L32.2369 18.6904C32.8414 19.0934 33.2443 19.4963 33.2443 20C33.2443 19.4963 32.9421 18.9926 32.2369 18.5896L12.5925 7.40742C11.1821 6.6015 10.074 7.20594 10.074 8.81779V8.91854C10.074 7.40742 11.1821 6.70224 12.5925 7.50817Z" fill="white"></path></g><defs><linearGradient id="paint0_linear_5879_17868" x1="21.9614" y1="8.62637" x2="5.05406" y2="25.5327" gradientUnits="userSpaceOnUse"><stop stop-color="#00A0FF"></stop><stop offset="0.007" stop-color="#00A1FF"></stop><stop offset="0.26" stop-color="#00BEFF"></stop><stop offset="0.512" stop-color="#00D2FF"></stop><stop offset="0.76" stop-color="#00DFFF"></stop><stop offset="1" stop-color="#00E3FF"></stop></linearGradient><linearGradient id="paint1_linear_5879_17868" x1="34.0846" y1="20.001" x2="9.70834" y2="20.001" gradientUnits="userSpaceOnUse"><stop stop-color="#FFE000"></stop><stop offset="0.409" stop-color="#FFBD00"></stop><stop offset="0.775" stop-color="#FFA500"></stop><stop offset="1" stop-color="#FF9C00"></stop></linearGradient><linearGradient id="paint2_linear_5879_17868" x1="25.0109" y1="22.313" x2="2.08434" y2="45.2396" gradientUnits="userSpaceOnUse"><stop stop-color="#FF3A44"></stop><stop offset="1" stop-color="#C31162"></stop></linearGradient><linearGradient id="paint3_linear_5879_17868" x1="7.35107" y1="0.029172" x2="17.5893" y2="10.2675" gradientUnits="userSpaceOnUse"><stop stop-color="#32A071"></stop><stop offset="0.069" stop-color="#2DA771"></stop><stop offset="0.476" stop-color="#15CF74"></stop><stop offset="0.801" stop-color="#06E775"></stop><stop offset="1" stop-color="#00F076"></stop></linearGradient><clipPath id="clip0_5879_17868"><rect width="135" height="40" rx="6" fill="white"></rect></clipPath></defs></svg>