<svg xmlns="http://www.w3.org/2000/svg" xml:space="preserve" id="Capa_1" x="0" y="0" style="enable-background:new 0 0 1591.8 370.6" version="1.1" viewBox="0 0 1591.8 370.6" width="140" class="wp-image-875"><style>.st0{fill:#fff}</style>
<path d="M127.4 166.7c24.9 0 38.9 10.2 42.3 35.1l38.1-2.6c-3.8-40-31-67.2-80.4-67.2-51.3 0-88 35.1-88 88 0 52.8 36.6 87.6 88 87.6 49.5 0 76.6-27.2 80.4-67.2l-38.1-3.4c-3.4 25.3-17.4 35.9-42.3 35.9s-42.3-18.5-42.3-52.8c0-34.9 17.4-53.4 42.3-53.4zM311.2 132c-51.3 0-87.6 36.2-87.6 88 0 51.7 36.2 87.6 87.6 87.6 51.7 0 88-35.9 88-87.6 0-51.8-36.2-88-88-88zm0 141.2c-27.6 0-41.9-21.9-41.9-53.2 0-31.7 14.3-53.6 41.9-53.6 27.9 0 42.3 21.9 42.3 53.6 0 31.3-14.3 53.2-42.3 53.2zM424 65.2h45.3V303H424zm79.5 0h45.3V303h-45.3zM660.4 132c-49.8 0-87.2 37.7-87.2 90.2s37 85.3 88.3 85.3c42.7 0 72.1-18.3 80.4-56.1l-36.6-3.8c-6.4 19.6-20 25.5-42.3 25.5-24.5 0-43.8-16.6-45.3-43.8h124.9V215c.1-45.3-27.8-83-82.2-83zm-41.9 73.6c2.6-22.3 16.6-40.4 41.5-40.4 25.3 0 37.7 18.9 38.5 40.4h-80zm229.1-38.9c24.9 0 38.9 10.2 42.3 35.1l38.1-2.6c-3.8-40-31-67.2-80.4-67.2-51.3 0-88 35.1-88 88 0 52.8 36.6 87.6 88 87.6 49.5 0 76.6-27.2 80.4-67.2l-38.1-3.4c-3.4 25.3-17.4 35.9-42.3 35.9s-42.3-18.5-42.3-52.8c.1-34.9 17.4-53.4 42.3-53.4zm225.5-30.2h-70.2v-46h-27.6l-5.3 22.6c-3.8 15.5-8.3 23.8-24.5 26.4l-11.3 1.9v26.8H958v92.5c0 35.5 21.5 46.8 47.2 46.8 20.4 0 34-5.3 46.1-14.3v-29.8c-9.8 4.5-19.3 7.9-28.3 7.9-13.6 0-20-6.4-20-20.8v-82.3h70.2V303h45.3V136.5h-45.4zm154.6 116.3h-1.5l-44.1-116.3h-47.6l65.7 166.5h49.8l65.7-166.5h-44.2zM1406.5 132c-49.8 0-87.2 37.7-87.2 90.2s37 85.3 88.3 85.3c42.7 0 72.1-18.3 80.4-56.1l-36.6-3.8c-6.4 19.6-20 25.5-42.3 25.5-24.5 0-43.8-16.6-45.3-43.8h125V215c0-45.3-28-83-82.3-83zm-41.9 73.6c2.6-22.3 16.6-40.4 41.5-40.4 25.3 0 37.8 18.9 38.5 40.4h-80z" class="st0"></path><circle cx="1094.6" cy="87" r="23.1" class="st0"></circle><circle cx="1529.5" cy="279.9" r="23.1" class="st0"></circle></svg>